<?xml version="1.0" encoding="UTF-8" standalone="no"?>
<!DOCTYPE svg PUBLIC "-//W3C//DTD SVG 1.1//EN" "http://www.w3.org/Graphics/SVG/1.1/DTD/svg11.dtd">
<svg width="100%" height="100%" viewBox="0 0 1720 479" version="1.1" xmlns="http://www.w3.org/2000/svg" xmlns:xlink="http://www.w3.org/1999/xlink" xml:space="preserve" xmlns:serif="http://www.serif.com/" style="fill-rule:evenodd;clip-rule:evenodd;stroke-linejoin:round;stroke-miterlimit:2;">
    <g transform="matrix(1,0,0,1,-148.114,-2425.48)">
        <g transform="matrix(1,0,0,1,-378.411,377.014)">
            <path d="M2245.81,2136.09L2245.81,2439.7C2245.81,2488.09 2206.58,2527.32 2158.21,2527.32L614.145,2527.32C566.225,2527.32 527.275,2488.84 526.545,2441.09C526.525,2440.63 526.525,2440.17 526.525,2439.7L526.525,2136.09C526.525,2087.7 565.755,2048.47 614.145,2048.47L2158.21,2048.47C2206.58,2048.47 2245.81,2087.7 2245.81,2136.09Z" style="fill:rgb(154,192,218);fill-rule:nonzero;"/>
        </g>
        <g transform="matrix(1,0,0,1,-378.411,377.014)">
            <path d="M1539.73,2492.46C1539.73,2494.55 1539.63,2496.64 1539.44,2498.71C1538.5,2508.46 1535.4,2518.02 1530.27,2527.32L614.145,2527.32C566.225,2527.32 527.275,2488.84 526.545,2441.09C589.485,2365.49 787.805,2310.29 1022.71,2310.29C1180.27,2310.29 1321.38,2335.12 1416.21,2374.3C1488.29,2404.06 1533.65,2442.11 1539.17,2483.83C1539.54,2486.69 1539.73,2489.57 1539.73,2492.46Z" style="fill:rgb(177,210,229);fill-rule:nonzero;"/>
        </g>
        <g transform="matrix(1,0,0,1,-378.411,377.014)">
            <path d="M2245.81,2377.77L2245.81,2439.7C2245.81,2488.09 2206.58,2527.32 2158.21,2527.32L1274.71,2527.32C1281.48,2490.92 1303.94,2456.65 1338.84,2426.04C1360.21,2407.3 1386.25,2389.94 1416.21,2374.3C1517.79,2321.23 1664.54,2287.9 1827.73,2287.9C1994.47,2287.9 2144.04,2322.69 2245.81,2377.77Z" style="fill:rgb(177,210,229);fill-rule:nonzero;"/>
        </g>
        <g transform="matrix(1,0,0,1,-378.411,377.014)">
            <path d="M1575.47,2527.32L693.465,2527.32C764.375,2457 935.105,2407.44 1134.46,2407.44C1207.62,2407.44 1276.92,2414.11 1338.84,2426.04C1415.69,2440.83 1481.19,2463.71 1528.6,2491.95C1532.33,2494.17 1535.94,2496.42 1539.44,2498.71C1553.33,2507.77 1565.4,2517.33 1575.47,2527.32Z" style="fill:rgb(206,229,240);fill-rule:nonzero;"/>
        </g>
        <g transform="matrix(1,0,0,1,-378.411,377.014)">
            <path d="M2245.81,2396.45L2245.81,2439.7C2245.81,2488.09 2206.58,2527.32 2158.21,2527.32L1495.77,2527.32C1503.75,2515.04 1514.8,2503.21 1528.6,2491.95C1531.96,2489.2 1535.48,2486.5 1539.17,2483.83C1627.17,2419.94 1805.75,2376.22 2011.71,2376.22C2095.73,2376.22 2175.19,2383.49 2245.81,2396.45Z" style="fill:rgb(206,229,240);fill-rule:nonzero;"/>
        </g>
    </g>
</svg>
