<?xml version="1.0" encoding="UTF-8" standalone="no"?>
<!DOCTYPE svg PUBLIC "-//W3C//DTD SVG 1.1//EN" "http://www.w3.org/Graphics/SVG/1.1/DTD/svg11.dtd">
<svg width="100%" height="100%" viewBox="0 0 1720 481" version="1.1" xmlns="http://www.w3.org/2000/svg" xmlns:xlink="http://www.w3.org/1999/xlink" xml:space="preserve" xmlns:serif="http://www.serif.com/" style="fill-rule:evenodd;clip-rule:evenodd;stroke-linejoin:round;stroke-miterlimit:2;">
    <g transform="matrix(1,0,0,1,-2779.66,-743.707)">
        <g transform="matrix(1,0,0,1,25.4726,-517.293)">
            <path d="M4473.47,1348.61L4473.47,1652.23C4473.47,1700.62 4434.25,1739.84 4385.87,1739.84L2841.8,1739.84C2793.42,1739.84 2754.19,1700.62 2754.19,1652.23L2754.19,1348.61C2754.19,1300.22 2793.42,1261 2841.8,1261L4385.87,1261C4434.25,1261 4473.47,1300.22 4473.47,1348.61Z" style="fill:rgb(87,117,141);fill-rule:nonzero;"/>
        </g>
        <g transform="matrix(1,0,0,1,25.4726,-517.293)">
            <path d="M4473.47,1348.61L4473.47,1553.44C4421.88,1553.18 4368.78,1541.45 4317.28,1548.22C4275.73,1553.67 4236.76,1570.97 4196.08,1580.97C4104.88,1603.38 4004.86,1587.19 3925.38,1537.17C3904.5,1524.01 3884.4,1508.38 3860.53,1502.12C3842.98,1497.51 3824.5,1498.3 3806.46,1500.15C3779.33,1502.92 3752.45,1508.03 3726.2,1515.39C3691.3,1525.18 3657.2,1539 3621.13,1542.47C3572.59,1547.15 3522.42,1531.87 3484.75,1500.92C3447.06,1469.96 3422.31,1423.73 3417.47,1375.2C3413.92,1339.71 3420.08,1298.86 3429.83,1261L4385.87,1261C4434.25,1261 4473.47,1300.22 4473.47,1348.61Z" style="fill:rgb(62,90,108);fill-rule:nonzero;"/>
        </g>
        <g transform="matrix(1,0,0,1,25.4726,-517.293)">
            <path d="M4473.47,1348.61L4473.47,1455.64C4439.45,1471.55 4398.98,1473.94 4364.19,1459.77C4349.48,1453.79 4335.92,1445.16 4320.9,1440.02C4283.26,1427.15 4241.63,1437.81 4205.04,1453.44C4168.46,1469.07 4133.51,1489.75 4094.58,1497.93C4027.38,1512.04 3956.64,1486.23 3902.37,1444.18C3881.11,1427.71 3859.37,1407.81 3832.48,1406.87C3815.25,1406.27 3798.92,1413.76 3782.81,1419.94C3730.7,1439.92 3672.46,1447.13 3618.64,1432.3C3564.83,1417.47 3516.39,1378.68 3497.25,1326.25C3491.15,1309.52 3484.69,1284.07 3483.75,1261L4385.87,1261C4434.25,1261 4473.47,1300.22 4473.47,1348.61Z" style="fill:rgb(38,61,73);fill-rule:nonzero;"/>
        </g>
        <g transform="matrix(1,0,0,1,25.4726,-517.293)">
            <path d="M4473.47,1348.61L4473.47,1387.59C4471.72,1389.23 4469.92,1390.79 4468.03,1392.28C4433.04,1419.96 4384,1420.34 4339.76,1414.47C4311.7,1410.75 4283.21,1404.77 4259.15,1389.83C4247.71,1382.72 4237.29,1373.61 4224.63,1368.99C4211.7,1364.28 4197.53,1364.68 4183.78,1365.33C4112.58,1368.68 4041.5,1377.1 3970.25,1375.26C3899,1373.41 3826.36,1360.63 3764.83,1324.63C3738.86,1309.43 3714.21,1288.92 3703.13,1261L4385.87,1261C4434.25,1261 4473.47,1300.22 4473.47,1348.61Z" style="fill:rgb(22,40,48);fill-rule:nonzero;"/>
        </g>
        <g transform="matrix(1,0,0,1,25.4726,-517.293)">
            <path d="M3363.29,1494.83L3415.03,1411.45" style="fill:none;fill-rule:nonzero;stroke:rgb(22,40,48);stroke-width:5.5px;"/>
        </g>
        <g transform="matrix(1,0,0,1,25.4726,-517.293)">
            <path d="M3440.21,1494.83L3491.95,1411.45" style="fill:none;fill-rule:nonzero;stroke:rgb(22,40,48);stroke-width:5.5px;"/>
        </g>
        <g transform="matrix(1,0,0,1,25.4726,-517.293)">
            <path d="M3418.22,1593.77L3469.96,1510.39" style="fill:none;fill-rule:nonzero;stroke:rgb(22,40,48);stroke-width:5.5px;"/>
        </g>
        <g transform="matrix(1,0,0,1,25.4726,-517.293)">
            <path d="M3518.22,1488.58L3569.96,1405.2" style="fill:none;fill-rule:nonzero;stroke:rgb(22,40,48);stroke-width:5.5px;"/>
        </g>
        <g transform="matrix(1,0,0,1,25.4726,-517.293)">
            <path d="M3605.39,1488.58L3657.14,1405.2" style="fill:none;fill-rule:nonzero;stroke:rgb(22,40,48);stroke-width:5.5px;"/>
        </g>
        <g transform="matrix(1,0,0,1,25.4726,-517.293)">
            <path d="M3582.94,1593.77L3634.68,1510.39" style="fill:none;fill-rule:nonzero;stroke:rgb(22,40,48);stroke-width:5.5px;"/>
        </g>
        <g transform="matrix(1,0,0,1,25.4726,-517.293)">
            <path d="M3354.71,1588.35L3406.46,1504.97" style="fill:none;fill-rule:nonzero;stroke:rgb(22,40,48);stroke-width:5.5px;"/>
        </g>
        <g transform="matrix(1,0,0,1,25.4726,-517.293)">
            <path d="M3680.27,1492.74L3732.01,1409.37" style="fill:none;fill-rule:nonzero;stroke:rgb(22,40,48);stroke-width:5.5px;"/>
        </g>
        <g transform="matrix(1,0,0,1,25.4726,-517.293)">
            <path d="M3482.76,1691.3L3534.5,1607.93" style="fill:none;fill-rule:nonzero;stroke:rgb(22,40,48);stroke-width:5.5px;"/>
        </g>
        <g transform="matrix(1,0,0,1,25.4726,-517.293)">
            <path d="M3406.46,1691.3L3458.2,1607.93" style="fill:none;fill-rule:nonzero;stroke:rgb(22,40,48);stroke-width:5.5px;"/>
        </g>
        <g transform="matrix(1,0,0,1,25.4726,-517.293)">
            <path d="M3328.84,1691.3L3380.58,1607.93" style="fill:none;fill-rule:nonzero;stroke:rgb(22,40,48);stroke-width:5.5px;"/>
        </g>
        <g transform="matrix(1,0,0,1,25.4726,-517.293)">
            <path d="M3492.35,1589.94L3544.09,1506.57" style="fill:none;fill-rule:nonzero;stroke:rgb(22,40,48);stroke-width:5.5px;"/>
        </g>
        <g transform="matrix(1,0,0,1,25.4726,-517.293)">
            <path d="M3750.1,1435.15L3801.84,1351.78" style="fill:none;fill-rule:nonzero;stroke:rgb(22,40,48);stroke-width:5.5px;"/>
        </g>
        <g transform="matrix(1,0,0,1,25.4726,-517.293)">
            <path d="M3827.02,1435.15L3878.76,1351.78" style="fill:none;fill-rule:nonzero;stroke:rgb(22,40,48);stroke-width:5.5px;"/>
        </g>
        <g transform="matrix(1,0,0,1,25.4726,-517.293)">
            <path d="M3805.03,1534.09L3856.77,1450.71" style="fill:none;fill-rule:nonzero;stroke:rgb(22,40,48);stroke-width:5.5px;"/>
        </g>
        <g transform="matrix(1,0,0,1,25.4726,-517.293)">
            <path d="M3905.03,1428.9L3956.77,1345.53" style="fill:none;fill-rule:nonzero;stroke:rgb(22,40,48);stroke-width:5.5px;"/>
        </g>
        <g transform="matrix(1,0,0,1,25.4726,-517.293)">
            <path d="M3992.21,1428.9L4043.95,1345.53" style="fill:none;fill-rule:nonzero;stroke:rgb(22,40,48);stroke-width:5.5px;"/>
        </g>
        <g transform="matrix(1,0,0,1,25.4726,-517.293)">
            <path d="M3969.75,1534.09L4021.49,1450.71" style="fill:none;fill-rule:nonzero;stroke:rgb(22,40,48);stroke-width:5.5px;"/>
        </g>
        <g transform="matrix(1,0,0,1,25.4726,-517.293)">
            <path d="M3741.53,1528.67L3793.27,1445.3" style="fill:none;fill-rule:nonzero;stroke:rgb(22,40,48);stroke-width:5.5px;"/>
        </g>
        <g transform="matrix(1,0,0,1,25.4726,-517.293)">
            <path d="M4067.08,1433.07L4118.82,1349.69" style="fill:none;fill-rule:nonzero;stroke:rgb(22,40,48);stroke-width:5.5px;"/>
        </g>
        <g transform="matrix(1,0,0,1,25.4726,-517.293)">
            <path d="M3869.57,1631.63L3921.31,1548.25" style="fill:none;fill-rule:nonzero;stroke:rgb(22,40,48);stroke-width:5.5px;"/>
        </g>
        <g transform="matrix(1,0,0,1,25.4726,-517.293)">
            <path d="M3793.27,1631.63L3845.01,1548.25" style="fill:none;fill-rule:nonzero;stroke:rgb(22,40,48);stroke-width:5.5px;"/>
        </g>
        <g transform="matrix(1,0,0,1,25.4726,-517.293)">
            <path d="M3715.66,1631.63L3767.4,1548.25" style="fill:none;fill-rule:nonzero;stroke:rgb(22,40,48);stroke-width:5.5px;"/>
        </g>
        <g transform="matrix(1,0,0,1,25.4726,-517.293)">
            <path d="M3879.16,1530.27L3930.9,1446.89" style="fill:none;fill-rule:nonzero;stroke:rgb(22,40,48);stroke-width:5.5px;"/>
        </g>
        <g transform="matrix(1,0,0,1,25.4726,-517.293)">
            <path d="M4023.91,1554.5L4075.65,1471.13" style="fill:none;fill-rule:nonzero;stroke:rgb(22,40,48);stroke-width:5.5px;"/>
        </g>
        <g transform="matrix(1,0,0,1,25.4726,-517.293)">
            <path d="M4100.83,1554.5L4152.58,1471.13" style="fill:none;fill-rule:nonzero;stroke:rgb(22,40,48);stroke-width:5.5px;"/>
        </g>
        <g transform="matrix(1,0,0,1,25.4726,-517.293)">
            <path d="M4078.84,1653.44L4130.58,1570.06" style="fill:none;fill-rule:nonzero;stroke:rgb(22,40,48);stroke-width:5.5px;"/>
        </g>
        <g transform="matrix(1,0,0,1,25.4726,-517.293)">
            <path d="M4178.84,1548.25L4230.58,1464.88" style="fill:none;fill-rule:nonzero;stroke:rgb(22,40,48);stroke-width:5.5px;"/>
        </g>
        <g transform="matrix(1,0,0,1,25.4726,-517.293)">
            <path d="M4266.02,1548.25L4317.76,1464.88" style="fill:none;fill-rule:nonzero;stroke:rgb(22,40,48);stroke-width:5.5px;"/>
        </g>
        <g transform="matrix(1,0,0,1,25.4726,-517.293)">
            <path d="M4243.56,1653.44L4295.3,1570.06" style="fill:none;fill-rule:nonzero;stroke:rgb(22,40,48);stroke-width:5.5px;"/>
        </g>
        <g transform="matrix(1,0,0,1,25.4726,-517.293)">
            <path d="M4015.34,1648.02L4067.08,1564.65" style="fill:none;fill-rule:nonzero;stroke:rgb(22,40,48);stroke-width:5.5px;"/>
        </g>
        <g transform="matrix(1,0,0,1,25.4726,-517.293)">
            <path d="M4340.89,1552.42L4392.63,1469.04" style="fill:none;fill-rule:nonzero;stroke:rgb(22,40,48);stroke-width:5.5px;"/>
        </g>
        <g transform="matrix(0.848571,0,0,0.848571,660.735,-264.77)">
            <path d="M4143.38,1750.98L4195.13,1667.6" style="fill:none;fill-rule:nonzero;stroke:rgb(22,40,48);stroke-width:5.5px;"/>
        </g>
        <g transform="matrix(0.852312,0,0,0.852312,633.773,-271.008)">
            <path d="M4067.08,1750.98L4118.82,1667.6" style="fill:none;fill-rule:nonzero;stroke:rgb(22,40,48);stroke-width:5.5px;"/>
        </g>
        <g transform="matrix(0.836114,-5.38844e-17,5.38844e-17,0.836114,687.772,-243.996)">
            <path d="M3989.47,1750.98L4041.21,1667.6" style="fill:none;fill-rule:nonzero;stroke:rgb(22,40,48);stroke-width:5.5px;"/>
        </g>
        <g transform="matrix(1,0,0,1,25.4726,-517.293)">
            <path d="M4152.97,1649.62L4204.71,1566.24" style="fill:none;fill-rule:nonzero;stroke:rgb(22,40,48);stroke-width:5.5px;"/>
        </g>
    </g>
</svg>
