<?xml version="1.0" encoding="UTF-8" standalone="no"?>
<!DOCTYPE svg PUBLIC "-//W3C//DTD SVG 1.1//EN" "http://www.w3.org/Graphics/SVG/1.1/DTD/svg11.dtd">
<svg width="100%" height="100%" viewBox="0 0 1720 481" version="1.1" xmlns="http://www.w3.org/2000/svg" xmlns:xlink="http://www.w3.org/1999/xlink" xml:space="preserve" xmlns:serif="http://www.serif.com/" style="fill-rule:evenodd;clip-rule:evenodd;stroke-linejoin:round;stroke-miterlimit:2;">
    <g transform="matrix(1,0,0,1,-2767.42,-1343.91)">
        <g transform="matrix(1,0,0,1,2240.89,82.9108)">
            <path d="M2245.81,1348.61L2245.81,1652.23C2245.81,1660.66 2244.63,1668.82 2242.4,1676.54C2231.85,1713.1 2198.15,1739.84 2158.21,1739.84L614.145,1739.84C565.755,1739.84 526.525,1700.62 526.525,1652.23L526.525,1348.61C526.525,1300.22 565.755,1261 614.145,1261L2158.21,1261C2206.58,1261 2245.81,1300.22 2245.81,1348.61Z" style="fill:rgb(93,157,213);fill-rule:nonzero;"/>
        </g>
        <g transform="matrix(1,0,0,1,2240.89,82.9108)">
            <path d="M2245.81,1348.61L2245.81,1652.23C2245.81,1660.66 2244.63,1668.82 2242.4,1676.54C2206.21,1675.96 2170.31,1671.84 2137.9,1656.51C2099.37,1638.28 2068.23,1605.2 2027.38,1593.05C1966.6,1574.97 1895.9,1606.67 1839.9,1576.93C1804.46,1558.1 1781.88,1517.38 1743.1,1507.06C1719.55,1500.8 1694.65,1507.22 1671.44,1514.59C1639.69,1524.67 1608.19,1536.66 1575.08,1540.36C1541.97,1544.06 1506.17,1538.37 1480.87,1516.7C1449.62,1489.94 1439.09,1443.48 1405.05,1420.37C1381.27,1404.22 1349.77,1402.34 1326.63,1385.29C1311.87,1374.42 1301.9,1358.38 1292.31,1342.75C1275.96,1316.11 1259.51,1289.24 1246.29,1261L2158.21,1261C2206.58,1261 2245.81,1300.22 2245.81,1348.61Z" style="fill:rgb(91,183,218);fill-rule:nonzero;"/>
        </g>
        <g transform="matrix(1,0,0,1,2240.89,82.9108)">
            <path d="M2245.81,1348.61L2245.81,1552.75C2215.35,1549.29 2185.72,1538.89 2160.33,1521.64C2140.21,1507.96 2121.25,1489.85 2097.12,1486.75C2068.34,1483.06 2041.35,1501.92 2012.42,1503.97C1983.13,1506.04 1955.15,1490.53 1933.58,1470.63C1932.67,1469.8 1931.79,1468.96 1930.9,1468.11C1897.25,1435.93 1849.5,1423.36 1804.56,1435.59C1784.29,1441.1 1763.38,1444.23 1742.37,1444.8C1727.4,1445.2 1711.46,1444.02 1699.31,1435.24C1684.21,1424.32 1678.63,1404.39 1665.69,1390.96C1642.06,1366.43 1602,1370.16 1569.33,1379.77C1536.63,1389.39 1502.1,1403.13 1469.67,1392.72C1420.29,1376.86 1437.8,1313.13 1350.22,1296.24C1320.71,1290.55 1305.22,1277.52 1298.59,1261L2158.21,1261C2206.58,1261 2245.81,1300.22 2245.81,1348.61Z" style="fill:rgb(101,201,211);fill-rule:nonzero;"/>
        </g>
        <g transform="matrix(1,0,0,1,2240.89,82.9108)">
            <path d="M2245.81,1348.61L2245.81,1442.69C2239.19,1443.97 2232.44,1444.7 2225.63,1444.81C2208.73,1445.09 2190.92,1441.6 2178.23,1430.43C2157.85,1412.48 2153.67,1377.77 2128.47,1367.66C2104.38,1358.01 2079.63,1377.55 2058.54,1392.67C2039.65,1406.22 2018.13,1417.32 1994.96,1419.05C1971.77,1420.78 1946.79,1411.55 1934.44,1391.87C1927.34,1380.57 1924.67,1366.62 1915.92,1356.56C1895.46,1333.08 1857.97,1343.8 1827.84,1351.65C1787.84,1362.08 1745.59,1363.78 1704.9,1356.6C1694.54,1354.77 1683.92,1352.21 1675.58,1345.81C1667.87,1339.9 1662.79,1331.22 1655.83,1324.44C1623.71,1293.13 1571.25,1312.89 1526.5,1316.09C1478.29,1319.54 1438.56,1294.89 1416.92,1261L2158.21,1261C2206.58,1261 2245.81,1300.22 2245.81,1348.61Z" style="fill:rgb(124,205,199);fill-rule:nonzero;"/>
        </g>
        <g transform="matrix(1,0,0,1,30.6912,80.8275)">
            <path d="M3363.29,1494.83L3415.03,1411.45" style="fill:none;fill-rule:nonzero;stroke:rgb(124,205,199);stroke-width:9px;"/>
        </g>
        <g transform="matrix(1,0,0,1,30.6912,80.8275)">
            <path d="M3440.21,1494.83L3491.95,1411.45" style="fill:none;fill-rule:nonzero;stroke:rgb(124,205,199);stroke-width:9px;"/>
        </g>
        <g transform="matrix(1,0,0,1,30.6912,80.8275)">
            <path d="M3418.22,1593.77L3469.96,1510.39" style="fill:none;fill-rule:nonzero;stroke:rgb(124,205,199);stroke-width:9px;"/>
        </g>
        <g transform="matrix(1,0,0,1,30.6912,80.8275)">
            <path d="M3518.22,1488.58L3569.96,1405.2" style="fill:none;fill-rule:nonzero;stroke:rgb(124,205,199);stroke-width:9px;"/>
        </g>
        <g transform="matrix(1,0,0,1,30.6912,80.8275)">
            <path d="M3605.39,1488.58L3657.14,1405.2" style="fill:none;fill-rule:nonzero;stroke:rgb(124,205,199);stroke-width:9px;"/>
        </g>
        <g transform="matrix(1,0,0,1,30.6912,80.8275)">
            <path d="M3582.94,1593.77L3634.68,1510.39" style="fill:none;fill-rule:nonzero;stroke:rgb(124,205,199);stroke-width:9px;"/>
        </g>
        <g transform="matrix(1,0,0,1,30.6912,80.8275)">
            <path d="M3354.71,1588.35L3406.46,1504.97" style="fill:none;fill-rule:nonzero;stroke:rgb(124,205,199);stroke-width:9px;"/>
        </g>
        <g transform="matrix(1,0,0,1,30.6912,80.8275)">
            <path d="M3680.27,1492.74L3732.01,1409.37" style="fill:none;fill-rule:nonzero;stroke:rgb(124,205,199);stroke-width:9px;"/>
        </g>
        <g transform="matrix(1,0,0,1,30.6912,80.8275)">
            <path d="M3482.76,1691.3L3534.5,1607.93" style="fill:none;fill-rule:nonzero;stroke:rgb(124,205,199);stroke-width:9px;"/>
        </g>
        <g transform="matrix(1,0,0,1,30.6912,80.8275)">
            <path d="M3406.46,1691.3L3458.2,1607.93" style="fill:none;fill-rule:nonzero;stroke:rgb(124,205,199);stroke-width:9px;"/>
        </g>
        <g transform="matrix(1,0,0,1,30.6912,80.8275)">
            <path d="M3328.84,1691.3L3380.58,1607.93" style="fill:none;fill-rule:nonzero;stroke:rgb(124,205,199);stroke-width:9px;"/>
        </g>
        <g transform="matrix(1,0,0,1,30.6912,80.8275)">
            <path d="M3492.35,1589.94L3544.09,1506.57" style="fill:none;fill-rule:nonzero;stroke:rgb(124,205,199);stroke-width:9px;"/>
        </g>
        <g transform="matrix(1,0,0,1,30.6912,80.8275)">
            <path d="M3750.1,1435.15L3801.84,1351.78" style="fill:none;fill-rule:nonzero;stroke:rgb(124,205,199);stroke-width:9px;"/>
        </g>
        <g transform="matrix(1,0,0,1,30.6912,80.8275)">
            <path d="M3827.02,1435.15L3878.76,1351.78" style="fill:none;fill-rule:nonzero;stroke:rgb(124,205,199);stroke-width:9px;"/>
        </g>
        <g transform="matrix(1,0,0,1,30.6912,80.8275)">
            <path d="M3805.03,1534.09L3856.77,1450.71" style="fill:none;fill-rule:nonzero;stroke:rgb(124,205,199);stroke-width:9px;"/>
        </g>
        <g transform="matrix(1,0,0,1,30.6912,80.8275)">
            <path d="M3905.03,1428.9L3956.77,1345.53" style="fill:none;fill-rule:nonzero;stroke:rgb(124,205,199);stroke-width:9px;"/>
        </g>
        <g transform="matrix(1,0,0,1,30.6912,80.8275)">
            <path d="M3992.21,1428.9L4043.95,1345.53" style="fill:none;fill-rule:nonzero;stroke:rgb(124,205,199);stroke-width:9px;"/>
        </g>
        <g transform="matrix(1,0,0,1,30.6912,80.8275)">
            <path d="M3969.75,1534.09L4021.49,1450.71" style="fill:none;fill-rule:nonzero;stroke:rgb(124,205,199);stroke-width:9px;"/>
        </g>
        <g transform="matrix(1,0,0,1,30.6912,80.8275)">
            <path d="M3741.53,1528.67L3793.27,1445.3" style="fill:none;fill-rule:nonzero;stroke:rgb(124,205,199);stroke-width:9px;"/>
        </g>
        <g transform="matrix(1,0,0,1,30.6912,80.8275)">
            <path d="M4067.08,1433.07L4118.82,1349.69" style="fill:none;fill-rule:nonzero;stroke:rgb(124,205,199);stroke-width:9px;"/>
        </g>
        <g transform="matrix(1,0,0,1,30.6912,80.8275)">
            <path d="M3869.57,1631.63L3921.31,1548.25" style="fill:none;fill-rule:nonzero;stroke:rgb(124,205,199);stroke-width:9px;"/>
        </g>
        <g transform="matrix(1,0,0,1,30.6912,80.8275)">
            <path d="M3793.27,1631.63L3845.01,1548.25" style="fill:none;fill-rule:nonzero;stroke:rgb(124,205,199);stroke-width:9px;"/>
        </g>
        <g transform="matrix(1,0,0,1,30.6912,80.8275)">
            <path d="M3715.66,1631.63L3767.4,1548.25" style="fill:none;fill-rule:nonzero;stroke:rgb(124,205,199);stroke-width:9px;"/>
        </g>
        <g transform="matrix(1,0,0,1,30.6912,80.8275)">
            <path d="M3879.16,1530.27L3930.9,1446.89" style="fill:none;fill-rule:nonzero;stroke:rgb(124,205,199);stroke-width:9px;"/>
        </g>
        <g transform="matrix(1,0,0,1,30.6912,80.8275)">
            <path d="M4023.91,1554.5L4075.65,1471.13" style="fill:none;fill-rule:nonzero;stroke:rgb(124,205,199);stroke-width:9px;"/>
        </g>
        <g transform="matrix(1,0,0,1,30.6912,80.8275)">
            <path d="M4100.83,1554.5L4152.58,1471.13" style="fill:none;fill-rule:nonzero;stroke:rgb(124,205,199);stroke-width:9px;"/>
        </g>
        <g transform="matrix(1,0,0,1,30.6912,80.8275)">
            <path d="M4078.84,1653.44L4130.58,1570.06" style="fill:none;fill-rule:nonzero;stroke:rgb(124,205,199);stroke-width:9px;"/>
        </g>
        <g transform="matrix(1,0,0,1,30.6912,80.8275)">
            <path d="M4178.84,1548.25L4230.58,1464.88" style="fill:none;fill-rule:nonzero;stroke:rgb(124,205,199);stroke-width:9px;"/>
        </g>
        <g transform="matrix(1,0,0,1,30.6912,80.8275)">
            <path d="M4266.02,1548.25L4317.76,1464.88" style="fill:none;fill-rule:nonzero;stroke:rgb(124,205,199);stroke-width:9px;"/>
        </g>
        <g transform="matrix(1,0,0,1,30.6912,80.8275)">
            <path d="M4243.56,1653.44L4295.3,1570.06" style="fill:none;fill-rule:nonzero;stroke:rgb(124,205,199);stroke-width:9px;"/>
        </g>
        <g transform="matrix(1,0,0,1,30.6912,80.8275)">
            <path d="M4015.34,1648.02L4067.08,1564.65" style="fill:none;fill-rule:nonzero;stroke:rgb(124,205,199);stroke-width:9px;"/>
        </g>
        <g transform="matrix(1,0,0,1,30.6912,80.8275)">
            <path d="M4340.89,1552.42L4392.63,1469.04" style="fill:none;fill-rule:nonzero;stroke:rgb(124,205,199);stroke-width:9px;"/>
        </g>
        <g transform="matrix(0.848571,0,0,0.848571,665.954,333.35)">
            <path d="M4143.38,1750.98L4195.13,1667.6" style="fill:none;fill-rule:nonzero;stroke:rgb(124,205,199);stroke-width:10.61px;"/>
        </g>
        <g transform="matrix(0.852312,0,0,0.852312,638.992,327.112)">
            <path d="M4067.08,1750.98L4118.82,1667.6" style="fill:none;fill-rule:nonzero;stroke:rgb(124,205,199);stroke-width:10.56px;"/>
        </g>
        <g transform="matrix(0.836114,-5.38844e-17,5.38844e-17,0.836114,692.991,354.124)">
            <path d="M3989.47,1750.98L4041.21,1667.6" style="fill:none;fill-rule:nonzero;stroke:rgb(124,205,199);stroke-width:10.76px;"/>
        </g>
        <g transform="matrix(1,0,0,1,30.6912,80.8275)">
            <path d="M4152.97,1649.62L4204.71,1566.24" style="fill:none;fill-rule:nonzero;stroke:rgb(124,205,199);stroke-width:9px;"/>
        </g>
    </g>
</svg>
