<?xml version="1.0" encoding="UTF-8" standalone="no"?>
<!DOCTYPE svg PUBLIC "-//W3C//DTD SVG 1.1//EN" "http://www.w3.org/Graphics/SVG/1.1/DTD/svg11.dtd">
<svg width="100%" height="100%" viewBox="0 0 1721 479" version="1.1" xmlns="http://www.w3.org/2000/svg" xmlns:xlink="http://www.w3.org/1999/xlink" xml:space="preserve" xmlns:serif="http://www.serif.com/" style="fill-rule:evenodd;clip-rule:evenodd;stroke-linejoin:round;stroke-miterlimit:2;">
    <g transform="matrix(1,0,0,1,-144.494,-1772.47)">
        <g transform="matrix(1,0,0,1,-382.031,511.472)">
            <path d="M2245.81,1348.61L2245.81,1652.23C2245.81,1660.66 2244.63,1668.82 2242.4,1676.54C2231.85,1713.1 2198.15,1739.84 2158.21,1739.84L614.145,1739.84C565.755,1739.84 526.525,1700.62 526.525,1652.23L526.525,1348.61C526.525,1300.22 565.755,1261 614.145,1261L2158.21,1261C2206.58,1261 2245.81,1300.22 2245.81,1348.61Z" style="fill:rgb(176,246,244);fill-rule:nonzero;"/>
        </g>
        <g transform="matrix(1,0,0,1,-380.759,1311.77)">
            <path d="M2245.81,548.456L2245.81,627.046C2206.81,692.696 2135.17,736.696 2053.27,736.696C1929.67,736.696 1829.46,636.496 1829.46,512.886C1829.46,494.966 1831.58,477.536 1835.55,460.836L2158.21,460.836C2206.58,460.836 2245.81,500.066 2245.81,548.456Z" style="fill:rgb(252,216,4);fill-rule:nonzero;"/>
        </g>
    </g>
</svg>
