<?xml version="1.0" encoding="UTF-8" standalone="no"?>
<!DOCTYPE svg PUBLIC "-//W3C//DTD SVG 1.1//EN" "http://www.w3.org/Graphics/SVG/1.1/DTD/svg11.dtd">
<svg width="100%" height="100%" viewBox="0 0 1720 479" version="1.1" xmlns="http://www.w3.org/2000/svg" xmlns:xlink="http://www.w3.org/1999/xlink" xml:space="preserve" xmlns:serif="http://www.serif.com/" style="fill-rule:evenodd;clip-rule:evenodd;stroke-linejoin:round;stroke-miterlimit:2;">
    <g transform="matrix(1,0,0,1,-448.84,-208.348)">
        <g transform="matrix(1,0,0,1,-77.6845,-252.488)">
            <path d="M2245.81,548.456L2245.81,852.066C2245.81,890.876 2220.58,923.786 2185.63,935.306C2177,938.146 2167.79,939.686 2158.21,939.686L614.145,939.686C565.755,939.686 526.525,900.456 526.525,852.066L526.525,548.456C526.525,500.066 565.755,460.836 614.145,460.836L2158.21,460.836C2200.09,460.836 2235.12,490.236 2243.76,529.536C2245.1,535.626 2245.81,541.956 2245.81,548.456Z" style="fill:rgb(255,155,0);fill-rule:nonzero;"/>
        </g>
        <g transform="matrix(1,0,0,1,-77.6845,-252.488)">
            <path d="M2245.81,548.456L2245.81,852.066C2245.81,890.876 2220.58,923.786 2185.63,935.306C2177,938.146 2167.79,939.686 2158.21,939.686L1569.85,939.686C1493.31,797.666 1462.46,630.296 1491.92,460.836L1942.54,460.836L2243.76,529.536C2245.1,535.626 2245.81,541.956 2245.81,548.456Z" style="fill:rgb(247,172,111);fill-rule:nonzero;"/>
        </g>
        <g transform="matrix(1,0,0,1,-77.6845,-252.488)">
            <path d="M2245.81,548.456L2245.81,852.066C2245.81,890.876 2220.58,923.786 2185.63,935.306C2172.04,936.476 2158.26,937.076 2144.35,937.076C1881.33,937.076 1668.12,723.856 1668.12,460.836L2158.21,460.836C2206.58,460.836 2245.81,500.066 2245.81,548.456Z" style="fill:rgb(254,196,111);fill-rule:nonzero;"/>
        </g>
        <g transform="matrix(1,0,0,1,-77.6845,-252.488)">
            <path d="M2245.81,548.456L2245.81,627.046C2206.81,692.696 2135.17,736.696 2053.27,736.696C1929.67,736.696 1829.46,636.496 1829.46,512.886C1829.46,494.966 1831.58,477.536 1835.55,460.836L2158.21,460.836C2206.58,460.836 2245.81,500.066 2245.81,548.456Z" style="fill:rgb(252,216,4);fill-rule:nonzero;"/>
        </g>
    </g>
</svg>
