<?xml version="1.0" encoding="UTF-8" standalone="no"?>
<!DOCTYPE svg PUBLIC "-//W3C//DTD SVG 1.1//EN" "http://www.w3.org/Graphics/SVG/1.1/DTD/svg11.dtd">
<svg width="100%" height="100%" viewBox="0 0 1720 479" version="1.1" xmlns="http://www.w3.org/2000/svg" xmlns:xlink="http://www.w3.org/1999/xlink" xml:space="preserve" xmlns:serif="http://www.serif.com/" style="fill-rule:evenodd;clip-rule:evenodd;stroke-linejoin:round;stroke-miterlimit:2;">
    <g transform="matrix(1,0,0,1,-2768.44,-2447.68)">
        <g transform="matrix(1,0,0,1,14.2486,399.209)">
            <path d="M4473.47,2136.09L4473.47,2439.7C4473.47,2488.09 4434.25,2527.32 4385.87,2527.32L2841.8,2527.32C2793.88,2527.32 2754.94,2488.84 2754.21,2441.09C2754.19,2440.63 2754.19,2440.17 2754.19,2439.7L2754.19,2136.09C2754.19,2087.7 2793.42,2048.47 2841.8,2048.47L4385.87,2048.47C4434.25,2048.47 4473.47,2087.7 4473.47,2136.09Z" style="fill:rgb(175,206,225);fill-rule:nonzero;"/>
        </g>
        <g transform="matrix(1,0,0,1,14.2486,399.209)">
            <path d="M3351.87,2114.67C3351.87,2121.62 3346.24,2127.25 3339.3,2127.25C3332.35,2127.25 3326.72,2121.62 3326.72,2114.67C3326.72,2107.72 3332.35,2102.09 3339.3,2102.09C3346.24,2102.09 3351.87,2107.72 3351.87,2114.67Z" style="fill:rgb(206,229,240);fill-rule:nonzero;"/>
        </g>
        <g transform="matrix(1,0,0,1,14.2486,399.209)">
            <path d="M3445.13,2120.96C3445.13,2124.43 3442.31,2127.25 3438.84,2127.25C3435.36,2127.25 3432.55,2124.43 3432.55,2120.96C3432.55,2117.49 3435.36,2114.67 3438.84,2114.67C3442.31,2114.67 3445.13,2117.49 3445.13,2120.96Z" style="fill:rgb(206,229,240);fill-rule:nonzero;"/>
        </g>
        <g transform="matrix(1,0,0,1,14.2486,399.209)">
            <path d="M3466.92,2216.76C3466.92,2224.51 3460.63,2230.8 3452.88,2230.8C3445.12,2230.8 3438.84,2224.51 3438.84,2216.76C3438.84,2209 3445.12,2202.72 3452.88,2202.72C3460.63,2202.72 3466.92,2209 3466.92,2216.76Z" style="fill:rgb(206,229,240);fill-rule:nonzero;"/>
        </g>
        <g transform="matrix(1,0,0,1,14.2486,399.209)">
            <path d="M3371.32,2254.15C3371.32,2256.69 3369.26,2258.75 3366.72,2258.75C3364.19,2258.75 3362.13,2256.69 3362.13,2254.15C3362.13,2251.62 3364.19,2249.56 3366.72,2249.56C3369.26,2249.56 3371.32,2251.62 3371.32,2254.15Z" style="fill:rgb(206,229,240);fill-rule:nonzero;"/>
        </g>
        <g transform="matrix(1,0,0,1,14.2486,399.209)">
            <path d="M3553.74,2264.69C3553.74,2267.97 3551.08,2270.64 3547.79,2270.64C3544.51,2270.64 3541.85,2267.97 3541.85,2264.69C3541.85,2261.41 3544.51,2258.75 3547.79,2258.75C3551.08,2258.75 3553.74,2261.41 3553.74,2264.69Z" style="fill:rgb(206,229,240);fill-rule:nonzero;"/>
        </g>
        <g transform="matrix(1,0,0,1,14.2486,399.209)">
            <path d="M3588.69,2166.28C3588.69,2170.12 3585.59,2173.22 3581.75,2173.22C3577.92,2173.22 3574.81,2170.12 3574.81,2166.28C3574.81,2162.45 3577.92,2159.34 3581.75,2159.34C3585.59,2159.34 3588.69,2162.45 3588.69,2166.28Z" style="fill:rgb(206,229,240);fill-rule:nonzero;"/>
        </g>
        <g transform="matrix(1,0,0,1,14.2486,399.209)">
            <path d="M3714.26,2124.54C3714.26,2129.99 3709.84,2134.4 3704.39,2134.4C3698.94,2134.4 3694.52,2129.99 3694.52,2124.54C3694.52,2119.09 3698.94,2114.67 3704.39,2114.67C3709.84,2114.67 3714.26,2119.09 3714.26,2124.54Z" style="fill:rgb(206,229,240);fill-rule:nonzero;"/>
        </g>
        <g transform="matrix(1,0,0,1,14.2486,399.209)">
            <path d="M3723.44,2235.39C3723.44,2237.92 3721.38,2239.98 3718.85,2239.98C3716.31,2239.98 3714.26,2237.92 3714.26,2235.39C3714.26,2232.86 3716.31,2230.8 3718.85,2230.8C3721.38,2230.8 3723.44,2232.86 3723.44,2235.39Z" style="fill:rgb(206,229,240);fill-rule:nonzero;"/>
        </g>
        <g transform="matrix(1,0,0,1,14.2486,399.209)">
            <path d="M3655,2305.08C3655,2307.96 3652.67,2310.29 3649.79,2310.29C3646.92,2310.29 3644.58,2307.96 3644.58,2305.08C3644.58,2302.21 3646.92,2299.87 3649.79,2299.87C3652.67,2299.87 3655,2302.21 3655,2305.08Z" style="fill:rgb(206,229,240);fill-rule:nonzero;"/>
        </g>
        <g transform="matrix(1,0,0,1,14.2486,399.209)">
            <path d="M3900.98,2193.17C3900.98,2198.45 3896.71,2202.72 3891.44,2202.72C3886.17,2202.72 3881.9,2198.45 3881.9,2193.17C3881.9,2187.91 3886.17,2183.63 3891.44,2183.63C3896.71,2183.63 3900.98,2187.91 3900.98,2193.17Z" style="fill:rgb(206,229,240);fill-rule:nonzero;"/>
        </g>
        <g transform="matrix(1,0,0,1,14.2486,399.209)">
            <path d="M3992.58,2111.52C3992.58,2116.73 3988.36,2120.96 3983.15,2120.96C3977.94,2120.96 3973.71,2116.73 3973.71,2111.52C3973.71,2106.31 3977.94,2102.09 3983.15,2102.09C3988.36,2102.09 3992.58,2106.31 3992.58,2111.52Z" style="fill:rgb(206,229,240);fill-rule:nonzero;"/>
        </g>
        <g transform="matrix(1,0,0,1,14.2486,399.209)">
            <path d="M3961.38,2242.17C3961.38,2245.91 3958.35,2248.95 3954.6,2248.95C3950.86,2248.95 3947.83,2245.91 3947.83,2242.17C3947.83,2238.42 3950.86,2235.39 3954.6,2235.39C3958.35,2235.39 3961.38,2238.42 3961.38,2242.17Z" style="fill:rgb(206,229,240);fill-rule:nonzero;"/>
        </g>
        <g transform="matrix(1,0,0,1,14.2486,399.209)">
            <path d="M4073.26,2200.29C4073.26,2204.22 4070.07,2207.4 4066.14,2207.4C4062.22,2207.4 4059.03,2204.22 4059.03,2200.29C4059.03,2196.36 4062.22,2193.17 4066.14,2193.17C4070.07,2193.17 4073.26,2196.36 4073.26,2200.29Z" style="fill:rgb(206,229,240);fill-rule:nonzero;"/>
        </g>
        <g transform="matrix(1,0,0,1,14.2486,399.209)">
            <path d="M4215.11,2133.27C4215.11,2138.09 4211.21,2141.99 4206.39,2141.99C4201.57,2141.99 4197.66,2138.09 4197.66,2133.27C4197.66,2128.44 4201.57,2124.54 4206.39,2124.54C4211.21,2124.54 4215.11,2128.44 4215.11,2133.27Z" style="fill:rgb(206,229,240);fill-rule:nonzero;"/>
        </g>
        <g transform="matrix(1,0,0,1,14.2486,399.209)">
            <path d="M4206.39,2204.65C4206.39,2207.06 4204.43,2209.02 4202.02,2209.02C4199.61,2209.02 4197.66,2207.06 4197.66,2204.65C4197.66,2202.24 4199.61,2200.29 4202.02,2200.29C4204.43,2200.29 4206.39,2202.24 4206.39,2204.65Z" style="fill:rgb(206,229,240);fill-rule:nonzero;"/>
        </g>
        <g transform="matrix(1,0,0,1,14.2486,399.209)">
            <path d="M4148.47,2251.86C4148.47,2253.13 4147.44,2254.15 4146.17,2254.15C4144.9,2254.15 4143.87,2253.13 4143.87,2251.86C4143.87,2250.59 4144.9,2249.56 4146.17,2249.56C4147.44,2249.56 4148.47,2250.59 4148.47,2251.86Z" style="fill:rgb(206,229,240);fill-rule:nonzero;"/>
        </g>
        <g transform="matrix(1,0,0,1,14.2486,399.209)">
            <path d="M3821.24,2102.47C3821.24,2107.47 3817.19,2111.52 3812.19,2111.52C3807.19,2111.52 3803.13,2107.47 3803.13,2102.47C3803.13,2097.47 3807.19,2093.42 3812.19,2093.42C3817.19,2093.42 3821.24,2097.47 3821.24,2102.47Z" style="fill:rgb(206,229,240);fill-rule:nonzero;"/>
        </g>
        <g transform="matrix(1,0,0,1,14.2486,399.209)">
            <path d="M4345.05,2221.49C4345.05,2224.1 4342.93,2226.22 4340.32,2226.22C4337.7,2226.22 4335.58,2224.1 4335.58,2221.49C4335.58,2218.88 4337.7,2216.76 4340.32,2216.76C4342.93,2216.76 4345.05,2218.88 4345.05,2221.49Z" style="fill:rgb(206,229,240);fill-rule:nonzero;"/>
        </g>
        <g transform="matrix(1,0,0,1,14.2486,399.209)">
            <path d="M4380.69,2154.14C4380.69,2160.85 4375.26,2166.28 4368.55,2166.28C4361.84,2166.28 4356.4,2160.85 4356.4,2154.14C4356.4,2147.43 4361.84,2141.99 4368.55,2141.99C4375.26,2141.99 4380.69,2147.43 4380.69,2154.14Z" style="fill:rgb(206,229,240);fill-rule:nonzero;"/>
        </g>
        <g transform="matrix(1,0,0,1,14.2486,399.209)">
            <path d="M3866.52,2261.24L3866.48,2261.24L3866.48,2261.18C3866.5,2261.2 3866.5,2261.22 3866.52,2261.24ZM3959.15,2283.75C3958.5,2283.36 3957.77,2283.1 3956.97,2283.05L3944.33,2282.23L3953.37,2278.05C3955.12,2277.24 3955.88,2275.16 3955.07,2273.41C3954.26,2271.66 3952.18,2270.9 3950.43,2271.71L3929.75,2281.28L3929.65,2281.27L3919.18,2280.42L3942.69,2269.54C3944.44,2268.73 3945.21,2266.65 3944.4,2264.9L3944.2,2264.48C3943.39,2262.73 3941.32,2261.97 3939.56,2262.78L3912.15,2275.46C3911.75,2275.41 3911.35,2275.34 3910.96,2275.25C3904.47,2273.74 3900.31,2267.54 3901.25,2261.07L3926.62,2248.26C3928.34,2247.4 3929.03,2245.29 3928.16,2243.57L3927.96,2243.16C3927.09,2241.44 3924.99,2240.75 3923.26,2241.62L3900.14,2253.28L3906.02,2244.47L3926.37,2234.2C3928.1,2233.33 3928.79,2231.23 3927.92,2229.51C3927.05,2227.79 3924.95,2227.09 3923.22,2227.96L3914.29,2232.47L3923.21,2219.58C3924.75,2217.36 3924.19,2214.3 3921.96,2212.76C3919.92,2211.35 3917.2,2211.72 3915.57,2213.5C3914.92,2213.87 3914.33,2214.37 3913.88,2215.04L3906.85,2225.57L3907.75,2215.66C3907.92,2213.74 3906.5,2212.04 3904.58,2211.86C3902.66,2211.69 3900.96,2213.11 3900.79,2215.03L3898.73,2237.73L3898.68,2237.8L3892.71,2246.45L3895.04,2220.65C3895.21,2218.73 3893.8,2217.03 3891.88,2216.85L3891.42,2216.81C3889.5,2216.64 3887.8,2218.05 3887.62,2219.98L3884.62,2253.14C3879.27,2256.77 3871.96,2255.83 3867.74,2250.77C3867.51,2250.5 3867.31,2250.23 3867.11,2249.95L3868.58,2223.93C3868.69,2222 3867.21,2220.36 3865.29,2220.25L3864.83,2220.22C3862.9,2220.11 3861.25,2221.59 3861.14,2223.51L3859.69,2249.38L3855,2239.87L3856.28,2217.11C3856.39,2215.19 3854.91,2213.54 3852.99,2213.43C3851.06,2213.32 3849.41,2214.79 3849.3,2216.72L3848.74,2226.71L3842.03,2212.54C3840.88,2210.1 3837.95,2209.05 3835.51,2210.21C3833.26,2211.27 3832.22,2213.81 3832.95,2216.12C3832.94,2216.87 3833.08,2217.63 3833.44,2218.34L3839.04,2229.7L3830.91,2223.97C3829.33,2222.86 3827.15,2223.24 3826.04,2224.81C3824.93,2226.39 3825.3,2228.57 3826.88,2229.68L3845.51,2242.81L3845.55,2242.89L3850.05,2252.39L3828.88,2237.47C3827.3,2236.36 3825.12,2236.74 3824.01,2238.31L3823.74,2238.69C3822.63,2240.27 3823.01,2242.45 3824.58,2243.56L3850.66,2261.93C3850.7,2262.06 3850.75,2262.18 3850.79,2262.31C3852.78,2268.86 3849.25,2275.74 3842.86,2277.99L3818.49,2262.03C3816.87,2260.97 3814.71,2261.42 3813.65,2263.04L3813.4,2263.42C3812.34,2265.03 3812.79,2267.2 3814.41,2268.26L3836.08,2282.45L3825.5,2281.76L3806.43,2269.27C3804.82,2268.21 3802.65,2268.67 3801.6,2270.28C3800.54,2271.89 3800.99,2274.06 3802.6,2275.12L3810.97,2280.6L3795.35,2279.32C3792.66,2279.1 3790.29,2281.11 3790.07,2283.81C3789.87,2286.28 3791.55,2288.46 3793.9,2288.98C3794.55,2289.36 3795.28,2289.62 3796.08,2289.67L3808.72,2290.49L3799.69,2294.67C3797.93,2295.48 3797.17,2297.56 3797.98,2299.31C3798.79,2301.06 3800.87,2301.83 3802.62,2301.01L3823.31,2291.44L3823.4,2291.45L3833.87,2292.31L3810.36,2303.18C3808.61,2303.99 3807.85,2306.07 3808.66,2307.82L3808.85,2308.24C3809.66,2309.99 3811.74,2310.75 3813.49,2309.94L3844.81,2295.45C3851.33,2297.54 3855.02,2304.39 3853.18,2310.96L3826.43,2324.46C3824.71,2325.33 3824.02,2327.43 3824.89,2329.15L3825.1,2329.56C3825.96,2331.28 3828.07,2331.97 3829.79,2331.11L3852.92,2319.44L3847.03,2328.25L3826.68,2338.52C3824.96,2339.39 3824.26,2341.49 3825.13,2343.21C3826,2344.93 3828.1,2345.63 3829.83,2344.76L3838.76,2340.25L3829.85,2353.14C3828.3,2355.37 3828.86,2358.42 3831.09,2359.96C3833.13,2361.37 3835.85,2361 3837.48,2359.22C3838.13,2358.85 3838.72,2358.35 3839.17,2357.69L3846.2,2347.15L3845.3,2357.06C3845.13,2358.99 3846.55,2360.68 3848.47,2360.86C3850.39,2361.03 3852.09,2359.62 3852.26,2357.69L3854.32,2334.99L3854.37,2334.92L3860.35,2326.27L3858.01,2352.07C3857.84,2353.99 3859.25,2355.69 3861.18,2355.87L3861.63,2355.91C3863.55,2356.08 3865.25,2354.67 3865.43,2352.74L3868.62,2317.46C3868.94,2317.17 3869.24,2316.87 3869.58,2316.61C3874.77,2312.81 3881.85,2313.51 3886.21,2317.99L3884.47,2348.79C3884.36,2350.72 3885.84,2352.37 3887.76,2352.47L3888.22,2352.5C3890.15,2352.61 3891.8,2351.13 3891.91,2349.21L3893.37,2323.35L3898.06,2332.85L3896.77,2355.61C3896.66,2357.53 3898.14,2359.18 3900.06,2359.29C3901.99,2359.4 3903.64,2357.93 3903.75,2356L3904.31,2346.01L3911.02,2360.18C3912.17,2362.62 3915.1,2363.67 3917.55,2362.51C3919.79,2361.45 3920.83,2358.91 3920.1,2356.61C3920.11,2355.86 3919.97,2355.09 3919.62,2354.38L3914.01,2343.02L3922.15,2348.75C3923.72,2349.86 3925.9,2349.48 3927.01,2347.91C3928.13,2346.33 3927.75,2344.15 3926.17,2343.04L3907.54,2329.91L3907.5,2329.83L3903,2320.33L3924.18,2335.25C3925.75,2336.36 3927.93,2335.99 3929.05,2334.41L3929.31,2334.03C3930.42,2332.46 3930.04,2330.28 3928.47,2329.16L3901.25,2309.99C3901.1,2309.53 3900.96,2309.06 3900.87,2308.57C3899.57,2302.25 3903.19,2296.09 3909.11,2294.02L3934.56,2310.69C3936.18,2311.75 3938.34,2311.3 3939.4,2309.68L3939.65,2309.3C3940.71,2307.69 3940.26,2305.52 3938.64,2304.46L3916.98,2290.27L3927.55,2290.96L3946.62,2303.45C3948.23,2304.51 3950.4,2304.06 3951.46,2302.44C3952.51,2300.83 3952.06,2298.66 3950.45,2297.6L3942.08,2292.12L3957.7,2293.4C3960.4,2293.62 3962.76,2291.61 3962.98,2288.91C3963.19,2286.44 3961.51,2284.26 3959.15,2283.75Z" style="fill:rgb(206,229,240);fill-rule:nonzero;"/>
        </g>
        <g transform="matrix(1,0,0,1,14.2486,399.209)">
            <path d="M3615.55,2210.63L3615.53,2210.63L3615.53,2210.61C3615.54,2210.62 3615.54,2210.62 3615.55,2210.63ZM3647.56,2218.41C3647.33,2218.28 3647.08,2218.19 3646.81,2218.17L3642.44,2217.88L3645.56,2216.44C3646.17,2216.16 3646.43,2215.44 3646.15,2214.84C3645.87,2214.23 3645.15,2213.97 3644.55,2214.25L3637.4,2217.55L3637.37,2217.55L3633.75,2217.26L3641.87,2213.5C3642.48,2213.22 3642.74,2212.5 3642.46,2211.9L3642.39,2211.75C3642.11,2211.15 3641.39,2210.88 3640.79,2211.16L3631.31,2215.55C3631.18,2215.53 3631.04,2215.5 3630.9,2215.47C3628.66,2214.95 3627.22,2212.81 3627.55,2210.57L3636.32,2206.15C3636.91,2205.85 3637.15,2205.12 3636.85,2204.52L3636.78,2204.38C3636.48,2203.79 3635.75,2203.55 3635.16,2203.85L3627.16,2207.88L3629.2,2204.84L3636.23,2201.29C3636.83,2200.99 3637.07,2200.26 3636.76,2199.67C3636.46,2199.07 3635.74,2198.83 3635.14,2199.13L3632.06,2200.69L3635.14,2196.23C3635.67,2195.46 3635.48,2194.41 3634.71,2193.88C3634,2193.39 3633.06,2193.52 3632.5,2194.13C3632.27,2194.26 3632.07,2194.43 3631.92,2194.66L3629.48,2198.3L3629.79,2194.88C3629.85,2194.21 3629.36,2193.63 3628.7,2193.57C3628.04,2193.51 3627.45,2194 3627.39,2194.66L3626.68,2202.5L3626.66,2202.53L3624.6,2205.52L3625.4,2196.6C3625.46,2195.94 3624.97,2195.35 3624.31,2195.29L3624.15,2195.28C3623.49,2195.22 3622.9,2195.71 3622.84,2196.37L3621.8,2207.83C3619.95,2209.08 3617.43,2208.76 3615.97,2207.01C3615.89,2206.92 3615.82,2206.83 3615.75,2206.73L3616.26,2197.74C3616.3,2197.07 3615.79,2196.5 3615.12,2196.46L3614.96,2196.46C3614.3,2196.42 3613.73,2196.93 3613.69,2197.59L3613.18,2206.53L3611.56,2203.25L3612.01,2195.38C3612.04,2194.71 3611.54,2194.14 3610.87,2194.11C3610.2,2194.07 3609.63,2194.58 3609.6,2195.24L3609.4,2198.7L3607.08,2193.8C3606.68,2192.96 3605.67,2192.59 3604.83,2193C3604.05,2193.36 3603.69,2194.24 3603.95,2195.04C3603.94,2195.29 3603.99,2195.56 3604.11,2195.81L3606.05,2199.73L3603.24,2197.75C3602.69,2197.37 3601.94,2197.5 3601.56,2198.04C3601.17,2198.59 3601.3,2199.34 3601.85,2199.72L3608.29,2204.26L3608.3,2204.29L3609.85,2207.57L3602.54,2202.42C3601.99,2202.03 3601.24,2202.16 3600.85,2202.71L3600.76,2202.84C3600.38,2203.38 3600.51,2204.14 3601.05,2204.52L3610.07,2210.87C3610.08,2210.91 3610.1,2210.96 3610.11,2211C3610.8,2213.26 3609.58,2215.64 3607.37,2216.42L3598.95,2210.9C3598.39,2210.54 3597.64,2210.69 3597.28,2211.25L3597.19,2211.38C3596.82,2211.94 3596.98,2212.69 3597.54,2213.06L3605.03,2217.96L3601.37,2217.72L3594.78,2213.41C3594.22,2213.04 3593.47,2213.2 3593.11,2213.75C3592.74,2214.31 3592.9,2215.06 3593.46,2215.43L3596.35,2217.32L3590.95,2216.88C3590.02,2216.8 3589.2,2217.5 3589.13,2218.43C3589.06,2219.29 3589.64,2220.04 3590.45,2220.21C3590.67,2220.35 3590.93,2220.44 3591.2,2220.46L3595.57,2220.74L3592.45,2222.18C3591.84,2222.46 3591.58,2223.18 3591.86,2223.79C3592.14,2224.39 3592.86,2224.66 3593.46,2224.38L3600.61,2221.07L3600.64,2221.07L3604.26,2221.37L3596.14,2225.13C3595.53,2225.41 3595.27,2226.12 3595.55,2226.73L3595.62,2226.87C3595.9,2227.48 3596.61,2227.74 3597.22,2227.46L3608.04,2222.45C3610.3,2223.18 3611.57,2225.54 3610.94,2227.81L3601.69,2232.48C3601.1,2232.78 3600.86,2233.5 3601.16,2234.1L3601.23,2234.24C3601.53,2234.84 3602.26,2235.08 3602.85,2234.77L3610.84,2230.74L3608.81,2233.79L3601.78,2237.34C3601.18,2237.64 3600.94,2238.36 3601.24,2238.96C3601.54,2239.55 3602.27,2239.79 3602.87,2239.49L3605.95,2237.94L3602.87,2242.39C3602.34,2243.16 3602.53,2244.21 3603.3,2244.75C3604.01,2245.23 3604.95,2245.11 3605.51,2244.49C3605.74,2244.36 3605.94,2244.19 3606.09,2243.96L3608.52,2240.32L3608.21,2243.75C3608.15,2244.41 3608.64,2245 3609.31,2245.06C3609.97,2245.12 3610.56,2244.63 3610.62,2243.96L3611.33,2236.12L3611.35,2236.09L3613.41,2233.11L3612.61,2242.02C3612.55,2242.68 3613.04,2243.27 3613.7,2243.33L3613.86,2243.35C3614.52,2243.41 3615.11,2242.92 3615.17,2242.25L3616.27,2230.06C3616.38,2229.96 3616.48,2229.85 3616.61,2229.77C3618.4,2228.45 3620.85,2228.69 3622.35,2230.24L3621.75,2240.89C3621.71,2241.55 3622.22,2242.12 3622.89,2242.16L3623.05,2242.17C3623.71,2242.21 3624.28,2241.7 3624.32,2241.03L3624.82,2232.09L3626.44,2235.38L3626,2243.24C3625.96,2243.91 3626.47,2244.48 3627.14,2244.52C3627.8,2244.55 3628.38,2244.04 3628.41,2243.38L3628.61,2239.93L3630.92,2244.82C3631.32,2245.67 3632.33,2246.03 3633.18,2245.63C3633.96,2245.26 3634.32,2244.38 3634.06,2243.59C3634.07,2243.33 3634.02,2243.07 3633.9,2242.82L3631.96,2238.89L3634.77,2240.87C3635.31,2241.26 3636.07,2241.13 3636.45,2240.58C3636.84,2240.04 3636.71,2239.28 3636.16,2238.9L3629.72,2234.36L3629.71,2234.33L3628.15,2231.05L3635.47,2236.21C3636.02,2236.59 3636.77,2236.46 3637.15,2235.92L3637.25,2235.79C3637.63,2235.24 3637.5,2234.49 3636.95,2234.1L3627.55,2227.48C3627.5,2227.32 3627.45,2227.16 3627.42,2226.99C3626.97,2224.8 3628.22,2222.67 3630.27,2221.96L3639.06,2227.72C3639.62,2228.09 3640.37,2227.93 3640.73,2227.37L3640.82,2227.24C3641.19,2226.68 3641.03,2225.93 3640.47,2225.57L3632.98,2220.66L3636.64,2220.9L3643.23,2225.22C3643.79,2225.58 3644.53,2225.43 3644.9,2224.87C3645.26,2224.31 3645.11,2223.56 3644.55,2223.2L3641.66,2221.3L3647.06,2221.74C3647.99,2221.82 3648.81,2221.13 3648.88,2220.19C3648.95,2219.34 3648.37,2218.59 3647.56,2218.41Z" style="fill:rgb(206,229,240);fill-rule:nonzero;"/>
        </g>
        <g transform="matrix(1,0,0,1,14.2486,399.209)">
            <path d="M3727.03,2408.85L3727.02,2408.85L3727.02,2408.83C3727.03,2408.84 3727.03,2408.84 3727.03,2408.85ZM3759.72,2416.79C3759.49,2416.66 3759.24,2416.56 3758.95,2416.55L3754.49,2416.26L3757.68,2414.78C3758.3,2414.5 3758.57,2413.76 3758.28,2413.14C3758,2412.53 3757.26,2412.26 3756.65,2412.54L3749.35,2415.92L3749.31,2415.92L3745.62,2415.62L3753.91,2411.78C3754.53,2411.49 3754.8,2410.76 3754.51,2410.14L3754.45,2409.99C3754.16,2409.38 3753.43,2409.11 3752.81,2409.39L3743.13,2413.87C3742.99,2413.85 3742.85,2413.83 3742.71,2413.79C3740.42,2413.26 3738.96,2411.07 3739.29,2408.79L3748.24,2404.27C3748.85,2403.96 3749.09,2403.22 3748.79,2402.61L3748.71,2402.47C3748.41,2401.86 3747.67,2401.62 3747.06,2401.92L3738.9,2406.04L3740.97,2402.93L3748.15,2399.31C3748.76,2399 3749.01,2398.26 3748.7,2397.65C3748.39,2397.04 3747.65,2396.8 3747.04,2397.11L3743.89,2398.7L3747.04,2394.15C3747.58,2393.36 3747.38,2392.29 3746.6,2391.74C3745.88,2391.24 3744.92,2391.37 3744.34,2392C3744.11,2392.13 3743.91,2392.31 3743.75,2392.54L3741.27,2396.26L3741.58,2392.76C3741.64,2392.09 3741.14,2391.49 3740.47,2391.43C3739.79,2391.36 3739.19,2391.86 3739.13,2392.54L3738.4,2400.55L3738.38,2400.58L3736.27,2403.63L3737.1,2394.53C3737.16,2393.85 3736.66,2393.25 3735.98,2393.19L3735.82,2393.17C3735.14,2393.11 3734.54,2393.61 3734.48,2394.29L3733.42,2405.99C3731.53,2407.27 3728.96,2406.94 3727.46,2405.15C3727.38,2405.06 3727.31,2404.96 3727.24,2404.87L3727.76,2395.68C3727.8,2395 3727.28,2394.42 3726.6,2394.38L3726.44,2394.38C3725.76,2394.34 3725.18,2394.86 3725.14,2395.54L3724.62,2404.66L3722.97,2401.31L3723.42,2393.28C3723.46,2392.6 3722.94,2392.02 3722.26,2391.98C3721.58,2391.94 3721,2392.46 3720.96,2393.14L3720.76,2396.66L3718.39,2391.67C3717.99,2390.8 3716.95,2390.43 3716.09,2390.84C3715.3,2391.22 3714.93,2392.11 3715.19,2392.93C3715.18,2393.19 3715.23,2393.46 3715.36,2393.71L3717.34,2397.72L3714.47,2395.7C3713.91,2395.31 3713.14,2395.44 3712.75,2396C3712.36,2396.55 3712.49,2397.32 3713.05,2397.71L3719.62,2402.35L3719.64,2402.38L3721.22,2405.73L3713.75,2400.46C3713.19,2400.07 3712.42,2400.2 3712.03,2400.76L3711.94,2400.89C3711.55,2401.45 3711.68,2402.22 3712.24,2402.61L3721.44,2409.09C3721.45,2409.14 3721.47,2409.18 3721.48,2409.23C3722.18,2411.54 3720.94,2413.97 3718.68,2414.76L3710.08,2409.13C3709.51,2408.75 3708.75,2408.91 3708.38,2409.48L3708.29,2409.62C3707.92,2410.19 3708.08,2410.95 3708.64,2411.33L3716.29,2416.33L3712.56,2416.09L3705.83,2411.68C3705.26,2411.31 3704.5,2411.47 3704.12,2412.04C3703.75,2412.61 3703.91,2413.37 3704.48,2413.75L3707.43,2415.68L3701.92,2415.23C3700.97,2415.15 3700.13,2415.86 3700.06,2416.81C3699.98,2417.69 3700.58,2418.45 3701.41,2418.64C3701.64,2418.77 3701.89,2418.86 3702.18,2418.88L3706.64,2419.17L3703.45,2420.65C3702.83,2420.93 3702.56,2421.67 3702.85,2422.28C3703.13,2422.9 3703.87,2423.17 3704.49,2422.88L3711.79,2419.51L3711.82,2419.51L3715.51,2419.81L3707.22,2423.65C3706.6,2423.94 3706.33,2424.67 3706.62,2425.29L3706.68,2425.43C3706.97,2426.05 3707.7,2426.32 3708.32,2426.04L3719.37,2420.92C3721.67,2421.66 3722.98,2424.07 3722.33,2426.4L3712.89,2431.16C3712.28,2431.46 3712.04,2432.21 3712.34,2432.81L3712.42,2432.96C3712.72,2433.57 3713.46,2433.81 3714.07,2433.5L3722.23,2429.39L3720.16,2432.5L3712.98,2436.12C3712.37,2436.43 3712.12,2437.17 3712.43,2437.78C3712.74,2438.38 3713.48,2438.63 3714.09,2438.32L3717.24,2436.73L3714.09,2441.28C3713.55,2442.06 3713.75,2443.14 3714.53,2443.69C3715.25,2444.18 3716.21,2444.05 3716.79,2443.42C3717.02,2443.29 3717.22,2443.12 3717.38,2442.88L3719.86,2439.17L3719.55,2442.66C3719.49,2443.34 3719.99,2443.94 3720.66,2444C3721.34,2444.06 3721.94,2443.56 3722,2442.89L3722.73,2434.88L3722.75,2434.85L3724.86,2431.8L3724.03,2440.9C3723.97,2441.58 3724.47,2442.18 3725.15,2442.24L3725.31,2442.26C3725.99,2442.32 3726.59,2441.82 3726.65,2441.14L3727.78,2428.69C3727.89,2428.59 3727.99,2428.48 3728.12,2428.39C3729.95,2427.05 3732.45,2427.29 3733.98,2428.87L3733.37,2439.74C3733.33,2440.42 3733.85,2441.01 3734.53,2441.04L3734.69,2441.05C3735.37,2441.09 3735.95,2440.57 3735.99,2439.89L3736.51,2430.77L3738.16,2434.12L3737.71,2442.15C3737.67,2442.83 3738.19,2443.41 3738.87,2443.45C3739.55,2443.49 3740.13,2442.97 3740.17,2442.29L3740.37,2438.76L3742.74,2443.76C3743.14,2444.63 3744.18,2444.99 3745.04,2444.58C3745.83,2444.21 3746.2,2443.31 3745.94,2442.5C3745.95,2442.24 3745.9,2441.97 3745.77,2441.71L3743.79,2437.71L3746.66,2439.73C3747.22,2440.12 3747.99,2439.99 3748.38,2439.43C3748.77,2438.88 3748.64,2438.11 3748.08,2437.71L3741.51,2433.08L3741.49,2433.05L3739.91,2429.7L3747.38,2434.97C3747.94,2435.36 3748.71,2435.23 3749.1,2434.67L3749.19,2434.54C3749.58,2433.98 3749.45,2433.21 3748.89,2432.82L3739.29,2426.05C3739.24,2425.89 3739.19,2425.72 3739.15,2425.55C3738.7,2423.32 3739.97,2421.15 3742.06,2420.42L3751.04,2426.3C3751.61,2426.67 3752.38,2426.51 3752.75,2425.94L3752.84,2425.81C3753.21,2425.24 3753.05,2424.48 3752.49,2424.1L3744.84,2419.09L3748.57,2419.34L3755.3,2423.74C3755.87,2424.12 3756.63,2423.96 3757.01,2423.39C3757.38,2422.82 3757.22,2422.05 3756.65,2421.68L3753.7,2419.75L3759.21,2420.2C3760.16,2420.28 3761,2419.57 3761.07,2418.61C3761.15,2417.74 3760.55,2416.97 3759.72,2416.79Z" style="fill:rgb(206,229,240);fill-rule:nonzero;"/>
        </g>
        <g transform="matrix(1,0,0,1,14.2486,399.209)">
            <path d="M4311.34,2396.01L4311.31,2396.01L4311.31,2395.98C4311.32,2395.99 4311.33,2396 4311.34,2396.01ZM4370.75,2410.45C4370.34,2410.21 4369.87,2410.04 4369.36,2410.01L4361.25,2409.48L4367.04,2406.8C4368.17,2406.28 4368.66,2404.95 4368.14,2403.82C4367.62,2402.7 4366.29,2402.21 4365.16,2402.73L4351.89,2408.87L4351.83,2408.86L4345.12,2408.32L4360.2,2401.34C4361.32,2400.82 4361.81,2399.49 4361.29,2398.36L4361.17,2398.1C4360.65,2396.97 4359.31,2396.48 4358.19,2397L4340.6,2405.14C4340.35,2405.11 4340.1,2405.06 4339.84,2405C4335.68,2404.03 4333.01,2400.06 4333.61,2395.9L4349.89,2387.69C4350.99,2387.14 4351.44,2385.79 4350.88,2384.68L4350.75,2384.42C4350.19,2383.32 4348.84,2382.87 4347.74,2383.43L4332.9,2390.91L4336.68,2385.26L4349.73,2378.67C4350.83,2378.12 4351.28,2376.77 4350.72,2375.66C4350.16,2374.56 4348.82,2374.12 4347.71,2374.67L4341.98,2377.56L4347.7,2369.3C4348.69,2367.87 4348.33,2365.91 4346.9,2364.92C4345.59,2364.02 4343.85,2364.25 4342.8,2365.4C4342.38,2365.63 4342,2365.95 4341.72,2366.38L4337.21,2373.14L4337.78,2366.78C4337.9,2365.55 4336.99,2364.46 4335.75,2364.35C4334.52,2364.23 4333.43,2365.14 4333.32,2366.38L4332,2380.94L4331.97,2380.98L4328.14,2386.53L4329.63,2369.98C4329.75,2368.75 4328.84,2367.66 4327.6,2367.55L4327.31,2367.52C4326.08,2367.41 4324.99,2368.32 4324.88,2369.55L4322.95,2390.82C4319.52,2393.15 4314.83,2392.55 4312.12,2389.3C4311.98,2389.13 4311.85,2388.95 4311.72,2388.78L4312.66,2372.09C4312.73,2370.85 4311.79,2369.79 4310.55,2369.72L4310.26,2369.71C4309.02,2369.64 4307.96,2370.58 4307.89,2371.82L4306.96,2388.41L4303.95,2382.31L4304.77,2367.71C4304.84,2366.48 4303.9,2365.42 4302.66,2365.35C4301.42,2365.28 4300.37,2366.22 4300.3,2367.46L4299.94,2373.87L4295.63,2364.78C4294.89,2363.21 4293.02,2362.54 4291.45,2363.29C4290.01,2363.97 4289.34,2365.6 4289.81,2367.07C4289.8,2367.55 4289.89,2368.04 4290.12,2368.5L4293.72,2375.79L4288.5,2372.11C4287.49,2371.4 4286.09,2371.64 4285.37,2372.65C4284.66,2373.66 4284.9,2375.06 4285.92,2375.78L4297.87,2384.2L4297.89,2384.25L4300.78,2390.34L4287.19,2380.77C4286.18,2380.06 4284.78,2380.3 4284.07,2381.31L4283.9,2381.55C4283.19,2382.56 4283.43,2383.96 4284.44,2384.67L4301.17,2396.46C4301.19,2396.54 4301.23,2396.62 4301.25,2396.7C4302.52,2400.9 4300.26,2405.32 4296.16,2406.76L4280.53,2396.52C4279.5,2395.84 4278.11,2396.13 4277.43,2397.17L4277.27,2397.42C4276.59,2398.45 4276.88,2399.84 4277.91,2400.52L4291.81,2409.62L4285.03,2409.18L4272.8,2401.17C4271.76,2400.49 4270.38,2400.78 4269.7,2401.81C4269.02,2402.85 4269.31,2404.24 4270.34,2404.92L4275.71,2408.43L4265.69,2407.62C4263.96,2407.47 4262.44,2408.76 4262.3,2410.49C4262.17,2412.08 4263.25,2413.47 4264.76,2413.81C4265.18,2414.05 4265.64,2414.22 4266.16,2414.25L4274.27,2414.78L4268.47,2417.46C4267.35,2417.98 4266.86,2419.31 4267.38,2420.44C4267.9,2421.56 4269.23,2422.05 4270.35,2421.53L4283.62,2415.39L4283.68,2415.39L4290.4,2415.94L4275.32,2422.92C4274.2,2423.44 4273.71,2424.77 4274.23,2425.89L4274.35,2426.16C4274.87,2427.28 4276.2,2427.77 4277.32,2427.25L4297.42,2417.96C4301.6,2419.3 4303.96,2423.69 4302.78,2427.91L4285.63,2436.56C4284.52,2437.12 4284.08,2438.47 4284.64,2439.57L4284.77,2439.84C4285.33,2440.94 4286.67,2441.39 4287.78,2440.83L4302.61,2433.34L4298.84,2439L4285.79,2445.58C4284.68,2446.14 4284.24,2447.49 4284.79,2448.59C4285.35,2449.7 4286.7,2450.14 4287.8,2449.58L4293.53,2446.69L4287.82,2454.96C4286.83,2456.39 4287.19,2458.35 4288.61,2459.34C4289.92,2460.24 4291.67,2460 4292.71,2458.86C4293.13,2458.63 4293.51,2458.3 4293.79,2457.88L4298.31,2451.12L4297.73,2457.48C4297.62,2458.71 4298.53,2459.8 4299.76,2459.91C4300.99,2460.02 4302.08,2459.11 4302.2,2457.88L4303.51,2443.32L4303.55,2443.27L4307.38,2437.73L4305.88,2454.28C4305.77,2455.51 4306.68,2456.6 4307.91,2456.71L4308.21,2456.74C4309.44,2456.85 4310.53,2455.94 4310.64,2454.71L4312.69,2432.08C4312.89,2431.89 4313.08,2431.7 4313.3,2431.53C4316.63,2429.09 4321.17,2429.54 4323.97,2432.42L4322.85,2452.17C4322.79,2453.41 4323.73,2454.46 4324.97,2454.53L4325.26,2454.55C4326.5,2454.62 4327.55,2453.68 4327.62,2452.44L4328.56,2435.85L4331.57,2441.95L4330.74,2456.54C4330.67,2457.78 4331.62,2458.84 4332.86,2458.91C4334.09,2458.98 4335.15,2458.03 4335.22,2456.8L4335.58,2450.39L4339.88,2459.47C4340.62,2461.04 4342.5,2461.71 4344.07,2460.97C4345.51,2460.29 4346.17,2458.66 4345.71,2457.18C4345.71,2456.7 4345.62,2456.22 4345.4,2455.75L4341.8,2448.47L4347.02,2452.15C4348.03,2452.86 4349.43,2452.62 4350.14,2451.61C4350.85,2450.59 4350.61,2449.2 4349.6,2448.48L4337.65,2440.06L4337.62,2440.01L4334.74,2433.92L4348.32,2443.49C4349.33,2444.2 4350.73,2443.96 4351.44,2442.95L4351.61,2442.71C4352.33,2441.69 4352.08,2440.3 4351.07,2439.58L4333.62,2427.28C4333.52,2426.99 4333.43,2426.69 4333.37,2426.38C4332.54,2422.32 4334.86,2418.37 4338.66,2417.04L4354.98,2427.74C4356.02,2428.41 4357.41,2428.13 4358.09,2427.09L4358.25,2426.84C4358.93,2425.81 4358.64,2424.42 4357.6,2423.74L4343.7,2414.64L4350.48,2415.08L4362.72,2423.09C4363.75,2423.77 4365.14,2423.48 4365.82,2422.44C4366.5,2421.41 4366.21,2420.02 4365.17,2419.34L4359.8,2415.82L4369.82,2416.64C4371.55,2416.78 4373.07,2415.5 4373.21,2413.76C4373.34,2412.18 4372.26,2410.78 4370.75,2410.45Z" style="fill:rgb(206,229,240);fill-rule:nonzero;"/>
        </g>
        <g transform="matrix(1,0,0,1,14.2486,399.209)">
            <path d="M3553.2,2364.22L3553.17,2364.22L3553.17,2364.18C3553.18,2364.19 3553.19,2364.21 3553.2,2364.22ZM3631.43,2383.23C3630.88,2382.91 3630.26,2382.69 3629.59,2382.64L3618.91,2381.95L3626.54,2378.42C3628.02,2377.73 3628.67,2375.98 3627.98,2374.5C3627.3,2373.02 3625.54,2372.38 3624.07,2373.06L3606.6,2381.15L3606.52,2381.14L3597.67,2380.42L3617.53,2371.23C3619.01,2370.55 3619.65,2368.79 3618.97,2367.32L3618.8,2366.96C3618.12,2365.48 3616.37,2364.84 3614.89,2365.52L3591.73,2376.24C3591.4,2376.19 3591.06,2376.14 3590.73,2376.06C3585.25,2374.78 3581.74,2369.54 3582.53,2364.08L3603.95,2353.27C3605.41,2352.53 3605.99,2350.76 3605.26,2349.3L3605.08,2348.96C3604.35,2347.5 3602.58,2346.92 3601.12,2347.65L3581.59,2357.51L3586.56,2350.06L3603.75,2341.39C3605.2,2340.66 3605.79,2338.88 3605.05,2337.43C3604.32,2335.97 3602.54,2335.39 3601.09,2336.12L3593.54,2339.93L3601.07,2329.04C3602.37,2327.16 3601.9,2324.58 3600.02,2323.28C3598.3,2322.09 3596,2322.4 3594.63,2323.91C3594.07,2324.22 3593.58,2324.64 3593.2,2325.2L3587.26,2334.1L3588.02,2325.73C3588.16,2324.11 3586.97,2322.67 3585.34,2322.53C3583.72,2322.38 3582.29,2323.58 3582.14,2325.2L3580.4,2344.37L3580.36,2344.43L3575.31,2351.73L3577.29,2329.94C3577.43,2328.32 3576.24,2326.89 3574.61,2326.74L3574.23,2326.71C3572.6,2326.56 3571.17,2327.75 3571.02,2329.38L3568.49,2357.39C3563.97,2360.45 3557.8,2359.66 3554.23,2355.38C3554.04,2355.16 3553.87,2354.92 3553.7,2354.69L3554.94,2332.72C3555.03,2331.09 3553.79,2329.7 3552.16,2329.61L3551.77,2329.58C3550.15,2329.49 3548.75,2330.74 3548.66,2332.36L3547.43,2354.21L3543.47,2346.18L3544.55,2326.96C3544.64,2325.33 3543.4,2323.94 3541.77,2323.85C3540.14,2323.75 3538.75,2325 3538.66,2326.63L3538.18,2335.06L3532.52,2323.1C3531.54,2321.03 3529.08,2320.15 3527.01,2321.13C3525.11,2322.03 3524.23,2324.17 3524.85,2326.12C3524.84,2326.75 3524.96,2327.39 3525.26,2328L3530,2337.59L3523.13,2332.75C3521.79,2331.81 3519.95,2332.13 3519.01,2333.46C3518.07,2334.79 3518.39,2336.63 3519.73,2337.57L3535.46,2348.66L3535.49,2348.73L3539.29,2356.75L3521.41,2344.15C3520.08,2343.21 3518.24,2343.53 3517.3,2344.86L3517.07,2345.18C3516.14,2346.51 3516.45,2348.35 3517.79,2349.29L3539.81,2364.81C3539.84,2364.92 3539.89,2365.02 3539.92,2365.12C3541.59,2370.66 3538.61,2376.47 3533.21,2378.37L3512.64,2364.89C3511.27,2364 3509.45,2364.38 3508.55,2365.74L3508.34,2366.07C3507.45,2367.43 3507.83,2369.26 3509.19,2370.15L3527.49,2382.14L3518.56,2381.55L3502.46,2371.01C3501.09,2370.11 3499.26,2370.5 3498.37,2371.86C3497.48,2373.22 3497.86,2375.05 3499.22,2375.94L3506.29,2380.57L3493.1,2379.5C3490.82,2379.31 3488.82,2381.01 3488.64,2383.29C3488.47,2385.37 3489.88,2387.21 3491.88,2387.65C3492.42,2387.97 3493.04,2388.19 3493.71,2388.23L3504.39,2388.93L3496.76,2392.46C3495.28,2393.14 3494.63,2394.9 3495.32,2396.38C3496,2397.85 3497.76,2398.5 3499.24,2397.81L3516.71,2389.73L3516.78,2389.74L3525.63,2390.46L3505.77,2399.64C3504.29,2400.33 3503.65,2402.08 3504.33,2403.56L3504.5,2403.91C3505.18,2405.39 3506.93,2406.04 3508.41,2405.35L3534.87,2393.11C3540.37,2394.88 3543.49,2400.66 3541.93,2406.21L3519.35,2417.61C3517.89,2418.34 3517.31,2420.12 3518.04,2421.57L3518.22,2421.92C3518.95,2423.38 3520.73,2423.96 3522.18,2423.23L3541.71,2413.37L3536.74,2420.81L3519.55,2429.49C3518.1,2430.22 3517.51,2432 3518.25,2433.45C3518.98,2434.9 3520.76,2435.49 3522.21,2434.75L3529.76,2430.95L3522.23,2441.83C3520.93,2443.71 3521.4,2446.29 3523.28,2447.59C3525,2448.79 3527.3,2448.47 3528.68,2446.97C3529.23,2446.66 3529.72,2446.24 3530.1,2445.67L3536.04,2436.78L3535.28,2445.15C3535.14,2446.77 3536.33,2448.21 3537.96,2448.35C3539.58,2448.5 3541.01,2447.3 3541.16,2445.68L3542.9,2426.51L3542.94,2426.44L3547.99,2419.15L3546.01,2440.93C3545.87,2442.56 3547.06,2443.99 3548.69,2444.14L3549.07,2444.17C3550.7,2444.32 3552.13,2443.12 3552.28,2441.5L3554.98,2411.7C3555.24,2411.46 3555.49,2411.2 3555.79,2410.99C3560.17,2407.78 3566.15,2408.36 3569.83,2412.15L3568.36,2438.16C3568.27,2439.79 3569.51,2441.18 3571.14,2441.27L3571.53,2441.29C3573.16,2441.39 3574.55,2440.14 3574.64,2438.51L3575.87,2416.67L3579.83,2424.7L3578.75,2443.92C3578.66,2445.55 3579.9,2446.94 3581.53,2447.03C3583.16,2447.12 3584.55,2445.88 3584.64,2444.25L3585.12,2435.82L3590.78,2447.78C3591.76,2449.84 3594.23,2450.73 3596.29,2449.75C3598.19,2448.85 3599.07,2446.71 3598.45,2444.76C3598.46,2444.13 3598.34,2443.49 3598.04,2442.88L3593.3,2433.29L3600.18,2438.13C3601.51,2439.07 3603.35,2438.75 3604.29,2437.42C3605.23,2436.08 3604.91,2434.24 3603.58,2433.3L3587.84,2422.22L3587.81,2422.15L3584.01,2414.13L3601.89,2426.73C3603.22,2427.67 3605.06,2427.35 3606,2426.01L3606.23,2425.7C3607.17,2424.37 3606.85,2422.52 3605.51,2421.59L3582.53,2405.39C3582.4,2405 3582.29,2404.61 3582.21,2404.2C3581.12,2398.86 3584.17,2393.65 3589.17,2391.91L3610.66,2405.99C3612.03,2406.88 3613.86,2406.5 3614.75,2405.14L3614.96,2404.81C3615.85,2403.45 3615.47,2401.62 3614.11,2400.73L3595.81,2388.74L3604.74,2389.32L3620.84,2399.87C3622.21,2400.76 3624.04,2400.38 3624.93,2399.02C3625.82,2397.66 3625.44,2395.83 3624.08,2394.93L3617.01,2390.3L3630.2,2391.38C3632.48,2391.57 3634.48,2389.87 3634.66,2387.59C3634.83,2385.5 3633.42,2383.67 3631.43,2383.23Z" style="fill:rgb(206,229,240);fill-rule:nonzero;"/>
        </g>
        <g transform="matrix(1,0,0,1,14.2486,399.209)">
            <path d="M3318.27,2278.66L3318.23,2278.66L3318.23,2278.61C3318.25,2278.63 3318.25,2278.64 3318.27,2278.66ZM3396.49,2297.67C3395.95,2297.34 3395.33,2297.12 3394.66,2297.08L3383.98,2296.38L3391.61,2292.85C3393.09,2292.17 3393.73,2290.42 3393.05,2288.94C3392.37,2287.46 3390.61,2286.81 3389.13,2287.5L3371.66,2295.58L3371.58,2295.58L3362.74,2294.85L3382.59,2285.67C3384.07,2284.98 3384.72,2283.23 3384.03,2281.75L3383.87,2281.4C3383.19,2279.92 3381.43,2279.28 3379.95,2279.96L3356.8,2290.67C3356.46,2290.63 3356.13,2290.57 3355.79,2290.49C3350.31,2289.21 3346.8,2283.98 3347.59,2278.51L3369.02,2267.7C3370.47,2266.97 3371.06,2265.19 3370.33,2263.74L3370.15,2263.39C3369.42,2261.94 3367.64,2261.35 3366.19,2262.09L3346.66,2271.94L3351.63,2264.5L3368.81,2255.83C3370.27,2255.09 3370.85,2253.32 3370.12,2251.86C3369.38,2250.41 3367.61,2249.82 3366.15,2250.56L3358.61,2254.36L3366.14,2243.48C3367.44,2241.6 3366.97,2239.02 3365.09,2237.72C3363.37,2236.53 3361.07,2236.84 3359.69,2238.34C3359.14,2238.65 3358.64,2239.08 3358.27,2239.64L3352.33,2248.54L3353.08,2240.17C3353.23,2238.54 3352.04,2237.11 3350.41,2236.96C3348.79,2236.81 3347.35,2238.01 3347.21,2239.63L3345.47,2258.8L3345.43,2258.87L3340.38,2266.17L3342.35,2244.38C3342.5,2242.76 3341.3,2241.32 3339.68,2241.17L3339.29,2241.14C3337.67,2240.99 3336.24,2242.19 3336.09,2243.81L3333.55,2271.82C3329.04,2274.88 3322.86,2274.09 3319.29,2269.82C3319.11,2269.59 3318.93,2269.36 3318.77,2269.13L3320.01,2247.15C3320.1,2245.53 3318.85,2244.13 3317.23,2244.04L3316.84,2244.02C3315.21,2243.93 3313.82,2245.17 3313.73,2246.8L3312.5,2268.64L3308.54,2260.62L3309.62,2241.39C3309.71,2239.77 3308.47,2238.37 3306.84,2238.28C3305.21,2238.19 3303.82,2239.44 3303.73,2241.06L3303.25,2249.5L3297.59,2237.54C3296.61,2235.47 3294.14,2234.59 3292.08,2235.57C3290.18,2236.46 3289.3,2238.61 3289.92,2240.55C3289.91,2241.18 3290.03,2241.83 3290.33,2242.43L3295.06,2252.03L3288.19,2247.19C3286.86,2246.25 3285.02,2246.57 3284.08,2247.9C3283.14,2249.23 3283.46,2251.07 3284.79,2252.01L3300.53,2263.1L3300.56,2263.17L3304.36,2271.19L3286.48,2258.59C3285.14,2257.65 3283.3,2257.97 3282.36,2259.3L3282.14,2259.62C3281.2,2260.95 3281.52,2262.79 3282.85,2263.73L3304.87,2279.25C3304.91,2279.35 3304.95,2279.45 3304.98,2279.56C3306.66,2285.09 3303.68,2290.91 3298.28,2292.8L3277.7,2279.33C3276.34,2278.43 3274.51,2278.81 3273.62,2280.18L3273.41,2280.5C3272.51,2281.86 3272.89,2283.69 3274.26,2284.59L3292.56,2296.57L3283.63,2295.99L3267.52,2285.44C3266.16,2284.55 3264.33,2284.93 3263.44,2286.29C3262.55,2287.66 3262.93,2289.49 3264.29,2290.38L3271.36,2295.01L3258.17,2293.93C3255.89,2293.74 3253.89,2295.44 3253.7,2297.72C3253.53,2299.81 3254.95,2301.64 3256.94,2302.08C3257.49,2302.41 3258.1,2302.62 3258.78,2302.67L3269.45,2303.36L3261.83,2306.89C3260.35,2307.58 3259.7,2309.33 3260.39,2310.81C3261.07,2312.29 3262.82,2312.93 3264.3,2312.25L3281.77,2304.17L3281.85,2304.17L3290.69,2304.89L3270.84,2314.08C3269.36,2314.76 3268.72,2316.52 3269.4,2318L3269.56,2318.35C3270.25,2319.83 3272,2320.47 3273.48,2319.79L3299.94,2307.55C3305.44,2309.32 3308.55,2315.1 3307,2320.65L3284.41,2332.05C3282.96,2332.78 3282.38,2334.55 3283.11,2336.01L3283.28,2336.36C3284.02,2337.81 3285.79,2338.4 3287.25,2337.66L3306.78,2327.81L3301.81,2335.25L3284.62,2343.92C3283.17,2344.66 3282.58,2346.43 3283.32,2347.88C3284.05,2349.34 3285.82,2349.92 3287.28,2349.19L3294.82,2345.38L3287.3,2356.27C3285.99,2358.15 3286.46,2360.73 3288.34,2362.03C3290.07,2363.22 3292.37,2362.91 3293.74,2361.4C3294.29,2361.1 3294.79,2360.67 3295.17,2360.11L3301.11,2351.21L3300.35,2359.58C3300.2,2361.21 3301.4,2362.64 3303.02,2362.79C3304.65,2362.93 3306.08,2361.74 3306.23,2360.12L3307.96,2340.94L3308.01,2340.88L3313.05,2333.58L3311.08,2355.37C3310.93,2356.99 3312.13,2358.43 3313.75,2358.57L3314.14,2358.61C3315.76,2358.75 3317.2,2357.56 3317.35,2355.94L3320.04,2326.14C3320.31,2325.89 3320.56,2325.64 3320.85,2325.42C3325.24,2322.21 3331.22,2322.8 3334.89,2326.58L3333.43,2352.6C3333.34,2354.22 3334.58,2355.62 3336.21,2355.71L3336.59,2355.73C3338.22,2355.82 3339.62,2354.58 3339.71,2352.95L3340.94,2331.11L3344.9,2339.13L3343.82,2358.35C3343.72,2359.98 3344.97,2361.37 3346.6,2361.47C3348.22,2361.56 3349.62,2360.31 3349.71,2358.69L3350.18,2350.25L3355.85,2362.21C3356.82,2364.28 3359.29,2365.16 3361.36,2364.18C3363.25,2363.29 3364.13,2361.14 3363.52,2359.2C3363.53,2358.56 3363.41,2357.92 3363.11,2357.31L3358.37,2347.72L3365.24,2352.56C3366.58,2353.5 3368.42,2353.18 3369.35,2351.85C3370.29,2350.52 3369.97,2348.68 3368.64,2347.74L3352.91,2336.65L3352.87,2336.58L3349.08,2328.56L3366.96,2341.16C3368.29,2342.1 3370.13,2341.78 3371.07,2340.45L3371.29,2340.13C3372.23,2338.8 3371.91,2336.96 3370.58,2336.02L3347.6,2319.83C3347.47,2319.44 3347.36,2319.04 3347.27,2318.63C3346.18,2313.29 3349.23,2308.09 3354.24,2306.34L3375.73,2320.42C3377.09,2321.32 3378.92,2320.94 3379.82,2319.57L3380.03,2319.25C3380.92,2317.88 3380.54,2316.05 3379.18,2315.16L3360.88,2303.18L3369.81,2303.76L3385.91,2314.31C3387.27,2315.2 3389.1,2314.82 3390,2313.46C3390.89,2312.09 3390.51,2310.26 3389.15,2309.37L3382.08,2304.74L3395.27,2305.82C3397.55,2306 3399.54,2304.31 3399.73,2302.03C3399.9,2299.94 3398.48,2298.1 3396.49,2297.67Z" style="fill:rgb(206,229,240);fill-rule:nonzero;"/>
        </g>
    </g>
</svg>
